<mxfile host="app.diagrams.net" modified="2023-05-21T07:58:16.807Z" agent="Mozilla/5.0 (Windows NT 10.0; Win64; x64) AppleWebKit/537.36 (KHTML, like Gecko) Chrome/113.0.0.0 Safari/537.36" etag="NI-Mozn9Xy81Cpx0L_4e" version="21.3.2" type="github">
  <diagram name="Страница 1" id="dsszgCT4D8X_oCPjsj_D">
    <mxGraphModel dx="1877" dy="549" grid="1" gridSize="10" guides="1" tooltips="1" connect="1" arrows="1" fold="1" page="1" pageScale="1" pageWidth="827" pageHeight="1169" math="0" shadow="0">
      <root>
        <mxCell id="0" />
        <mxCell id="1" parent="0" />
        <mxCell id="w890S_GkcKNvWgeEcLcq-5" value="" style="edgeStyle=orthogonalEdgeStyle;rounded=0;orthogonalLoop=1;jettySize=auto;html=1;" edge="1" parent="1" source="w890S_GkcKNvWgeEcLcq-1" target="w890S_GkcKNvWgeEcLcq-4">
          <mxGeometry relative="1" as="geometry" />
        </mxCell>
        <mxCell id="w890S_GkcKNvWgeEcLcq-1" value="Start" style="rounded=1;whiteSpace=wrap;html=1;" vertex="1" parent="1">
          <mxGeometry x="120" y="20" width="120" height="60" as="geometry" />
        </mxCell>
        <mxCell id="w890S_GkcKNvWgeEcLcq-10" value="" style="edgeStyle=orthogonalEdgeStyle;rounded=0;orthogonalLoop=1;jettySize=auto;html=1;" edge="1" parent="1" source="w890S_GkcKNvWgeEcLcq-4" target="w890S_GkcKNvWgeEcLcq-9">
          <mxGeometry relative="1" as="geometry" />
        </mxCell>
        <mxCell id="w890S_GkcKNvWgeEcLcq-4" value="mas[size]" style="shape=parallelogram;perimeter=parallelogramPerimeter;whiteSpace=wrap;html=1;fixedSize=1;" vertex="1" parent="1">
          <mxGeometry x="120" y="100" width="120" height="60" as="geometry" />
        </mxCell>
        <mxCell id="w890S_GkcKNvWgeEcLcq-18" value="" style="edgeStyle=orthogonalEdgeStyle;rounded=0;orthogonalLoop=1;jettySize=auto;html=1;" edge="1" parent="1" source="w890S_GkcKNvWgeEcLcq-7" target="w890S_GkcKNvWgeEcLcq-17">
          <mxGeometry relative="1" as="geometry" />
        </mxCell>
        <mxCell id="w890S_GkcKNvWgeEcLcq-30" style="edgeStyle=orthogonalEdgeStyle;rounded=0;orthogonalLoop=1;jettySize=auto;html=1;exitX=0.5;exitY=1;exitDx=0;exitDy=0;entryX=0;entryY=0.5;entryDx=0;entryDy=0;" edge="1" parent="1" source="w890S_GkcKNvWgeEcLcq-7" target="w890S_GkcKNvWgeEcLcq-12">
          <mxGeometry relative="1" as="geometry" />
        </mxCell>
        <mxCell id="w890S_GkcKNvWgeEcLcq-7" value="mas[i] &amp;gt; mas[max]" style="rhombus;whiteSpace=wrap;html=1;" vertex="1" parent="1">
          <mxGeometry x="120" y="370" width="120" height="80" as="geometry" />
        </mxCell>
        <mxCell id="w890S_GkcKNvWgeEcLcq-35" value="" style="edgeStyle=orthogonalEdgeStyle;rounded=0;orthogonalLoop=1;jettySize=auto;html=1;" edge="1" parent="1" source="w890S_GkcKNvWgeEcLcq-9" target="w890S_GkcKNvWgeEcLcq-34">
          <mxGeometry relative="1" as="geometry" />
        </mxCell>
        <mxCell id="w890S_GkcKNvWgeEcLcq-9" value="i = 0&lt;br&gt;max = mas[0]&lt;br&gt;min = mas[0]" style="rounded=0;whiteSpace=wrap;html=1;" vertex="1" parent="1">
          <mxGeometry x="120" y="180" width="120" height="60" as="geometry" />
        </mxCell>
        <mxCell id="w890S_GkcKNvWgeEcLcq-31" style="edgeStyle=orthogonalEdgeStyle;rounded=0;orthogonalLoop=1;jettySize=auto;html=1;exitX=0.5;exitY=0;exitDx=0;exitDy=0;entryX=1;entryY=0.5;entryDx=0;entryDy=0;" edge="1" parent="1" source="w890S_GkcKNvWgeEcLcq-12" target="w890S_GkcKNvWgeEcLcq-22">
          <mxGeometry relative="1" as="geometry" />
        </mxCell>
        <mxCell id="w890S_GkcKNvWgeEcLcq-44" style="edgeStyle=orthogonalEdgeStyle;rounded=0;orthogonalLoop=1;jettySize=auto;html=1;exitX=0.5;exitY=1;exitDx=0;exitDy=0;" edge="1" parent="1" source="w890S_GkcKNvWgeEcLcq-12">
          <mxGeometry relative="1" as="geometry">
            <mxPoint x="630" y="490" as="targetPoint" />
          </mxGeometry>
        </mxCell>
        <mxCell id="w890S_GkcKNvWgeEcLcq-12" value="max = i" style="whiteSpace=wrap;html=1;" vertex="1" parent="1">
          <mxGeometry x="570" y="440" width="120" height="60" as="geometry" />
        </mxCell>
        <mxCell id="w890S_GkcKNvWgeEcLcq-14" value="Yes" style="text;html=1;align=center;verticalAlign=middle;resizable=0;points=[];autosize=1;strokeColor=none;fillColor=none;" vertex="1" parent="1">
          <mxGeometry x="140" y="450" width="40" height="30" as="geometry" />
        </mxCell>
        <mxCell id="w890S_GkcKNvWgeEcLcq-20" value="" style="edgeStyle=orthogonalEdgeStyle;rounded=0;orthogonalLoop=1;jettySize=auto;html=1;" edge="1" parent="1" source="w890S_GkcKNvWgeEcLcq-17" target="w890S_GkcKNvWgeEcLcq-19">
          <mxGeometry relative="1" as="geometry" />
        </mxCell>
        <mxCell id="w890S_GkcKNvWgeEcLcq-24" value="" style="edgeStyle=orthogonalEdgeStyle;rounded=0;orthogonalLoop=1;jettySize=auto;html=1;" edge="1" parent="1" source="w890S_GkcKNvWgeEcLcq-17" target="w890S_GkcKNvWgeEcLcq-22">
          <mxGeometry relative="1" as="geometry" />
        </mxCell>
        <mxCell id="w890S_GkcKNvWgeEcLcq-17" value="mas[i] &amp;lt; mas[min]" style="rhombus;whiteSpace=wrap;html=1;" vertex="1" parent="1">
          <mxGeometry x="270" y="370" width="120" height="80" as="geometry" />
        </mxCell>
        <mxCell id="w890S_GkcKNvWgeEcLcq-28" style="edgeStyle=orthogonalEdgeStyle;rounded=0;orthogonalLoop=1;jettySize=auto;html=1;exitX=0.5;exitY=0;exitDx=0;exitDy=0;entryX=1;entryY=0.5;entryDx=0;entryDy=0;" edge="1" parent="1" source="w890S_GkcKNvWgeEcLcq-19" target="w890S_GkcKNvWgeEcLcq-22">
          <mxGeometry relative="1" as="geometry" />
        </mxCell>
        <mxCell id="w890S_GkcKNvWgeEcLcq-19" value="min = i" style="whiteSpace=wrap;html=1;" vertex="1" parent="1">
          <mxGeometry x="420" y="380" width="120" height="60" as="geometry" />
        </mxCell>
        <mxCell id="w890S_GkcKNvWgeEcLcq-21" value="No" style="text;html=1;align=center;verticalAlign=middle;resizable=0;points=[];autosize=1;strokeColor=none;fillColor=none;" vertex="1" parent="1">
          <mxGeometry x="230" y="370" width="40" height="30" as="geometry" />
        </mxCell>
        <mxCell id="w890S_GkcKNvWgeEcLcq-38" value="" style="edgeStyle=orthogonalEdgeStyle;rounded=0;orthogonalLoop=1;jettySize=auto;html=1;" edge="1" parent="1" source="w890S_GkcKNvWgeEcLcq-22" target="w890S_GkcKNvWgeEcLcq-34">
          <mxGeometry relative="1" as="geometry" />
        </mxCell>
        <mxCell id="w890S_GkcKNvWgeEcLcq-22" value="i = i + 1" style="whiteSpace=wrap;html=1;" vertex="1" parent="1">
          <mxGeometry x="270" y="270" width="120" height="60" as="geometry" />
        </mxCell>
        <mxCell id="w890S_GkcKNvWgeEcLcq-25" value="Yes" style="text;html=1;align=center;verticalAlign=middle;resizable=0;points=[];autosize=1;strokeColor=none;fillColor=none;" vertex="1" parent="1">
          <mxGeometry x="380" y="380" width="40" height="30" as="geometry" />
        </mxCell>
        <mxCell id="w890S_GkcKNvWgeEcLcq-26" value="No" style="text;html=1;align=center;verticalAlign=middle;resizable=0;points=[];autosize=1;strokeColor=none;fillColor=none;" vertex="1" parent="1">
          <mxGeometry x="290" y="328" width="40" height="30" as="geometry" />
        </mxCell>
        <mxCell id="w890S_GkcKNvWgeEcLcq-37" value="" style="edgeStyle=orthogonalEdgeStyle;rounded=0;orthogonalLoop=1;jettySize=auto;html=1;" edge="1" parent="1" source="w890S_GkcKNvWgeEcLcq-34" target="w890S_GkcKNvWgeEcLcq-36">
          <mxGeometry relative="1" as="geometry" />
        </mxCell>
        <mxCell id="w890S_GkcKNvWgeEcLcq-41" style="edgeStyle=orthogonalEdgeStyle;rounded=0;orthogonalLoop=1;jettySize=auto;html=1;exitX=0.5;exitY=1;exitDx=0;exitDy=0;entryX=0.5;entryY=0;entryDx=0;entryDy=0;" edge="1" parent="1" source="w890S_GkcKNvWgeEcLcq-34" target="w890S_GkcKNvWgeEcLcq-7">
          <mxGeometry relative="1" as="geometry" />
        </mxCell>
        <mxCell id="w890S_GkcKNvWgeEcLcq-34" value="i &amp;lt; size" style="rhombus;whiteSpace=wrap;html=1;" vertex="1" parent="1">
          <mxGeometry x="140" y="260" width="80" height="80" as="geometry" />
        </mxCell>
        <mxCell id="w890S_GkcKNvWgeEcLcq-46" value="" style="edgeStyle=orthogonalEdgeStyle;rounded=0;orthogonalLoop=1;jettySize=auto;html=1;" edge="1" parent="1" source="w890S_GkcKNvWgeEcLcq-36" target="w890S_GkcKNvWgeEcLcq-45">
          <mxGeometry relative="1" as="geometry" />
        </mxCell>
        <mxCell id="w890S_GkcKNvWgeEcLcq-36" value="max&lt;br&gt;min" style="shape=document;whiteSpace=wrap;html=1;boundedLbl=1;" vertex="1" parent="1">
          <mxGeometry x="-30" y="260" width="120" height="80" as="geometry" />
        </mxCell>
        <mxCell id="w890S_GkcKNvWgeEcLcq-39" value="No" style="text;html=1;align=center;verticalAlign=middle;resizable=0;points=[];autosize=1;strokeColor=none;fillColor=none;" vertex="1" parent="1">
          <mxGeometry x="100" y="270" width="40" height="30" as="geometry" />
        </mxCell>
        <mxCell id="w890S_GkcKNvWgeEcLcq-42" value="Yes" style="text;html=1;align=center;verticalAlign=middle;resizable=0;points=[];autosize=1;strokeColor=none;fillColor=none;" vertex="1" parent="1">
          <mxGeometry x="140" y="340" width="40" height="30" as="geometry" />
        </mxCell>
        <mxCell id="w890S_GkcKNvWgeEcLcq-43" style="edgeStyle=orthogonalEdgeStyle;rounded=0;orthogonalLoop=1;jettySize=auto;html=1;exitX=0.5;exitY=1;exitDx=0;exitDy=0;" edge="1" parent="1" source="w890S_GkcKNvWgeEcLcq-17" target="w890S_GkcKNvWgeEcLcq-17">
          <mxGeometry relative="1" as="geometry" />
        </mxCell>
        <mxCell id="w890S_GkcKNvWgeEcLcq-45" value="finish" style="rounded=1;whiteSpace=wrap;html=1;" vertex="1" parent="1">
          <mxGeometry x="-30" y="380" width="120" height="60" as="geometry" />
        </mxCell>
      </root>
    </mxGraphModel>
  </diagram>
</mxfile>
